<svg width="138" height="112" viewBox="0 0 138 112" fill="none" xmlns="http://www.w3.org/2000/svg">
<path d="M46.3333 43.7778H46.4089M91.6667 43.7778H91.7422M46.3333 74.3333H91.6667M1 56C1 63.2227 2.75887 70.3747 6.17619 77.0476C9.59351 83.7205 14.6024 89.7836 20.9167 94.8909C27.2311 99.9981 34.7274 104.049 42.9775 106.813C51.2277 109.577 60.0701 111 69 111C77.9299 111 86.7723 109.577 95.0225 106.813C103.273 104.049 110.769 99.9981 117.083 94.8909C123.398 89.7836 128.406 83.7205 131.824 77.0476C135.241 70.3747 137 63.2227 137 56C137 48.7773 135.241 41.6253 131.824 34.9524C128.406 28.2795 123.398 22.2163 117.083 17.1091C110.769 12.0019 103.273 7.95064 95.0225 5.18663C86.7723 2.42262 77.9299 1 69 1C60.0701 1 51.2277 2.42262 42.9775 5.18663C34.7274 7.95064 27.2311 12.0019 20.9167 17.1091C14.6024 22.2163 9.59351 28.2795 6.17619 34.9524C2.75887 41.6253 1 48.7773 1 56Z" stroke="#F24E1E" stroke-width="2" stroke-linecap="round" stroke-linejoin="round"/>
</svg>
